<svg width="24" height="24" viewBox="0 0 1024 1024" fill="none" xmlns="http://www.w3.org/2000/svg" role="img" aria-labelledby="logoTitle">
<title id="logoTitle">Liga Futsal Logo</title>
<g clip-path="url(#clip0_10_22)">
<path d="M512 1024C795.021 1024 1024 795.021 1024 512C1024 228.979 795.021 0 512 0C228.979 0 0 228.979 0 512C0 795.021 228.979 1024 512 1024Z" fill="#800020"/>
<path d="M141.564 366.592L235.008 235.008L366.592 141.564C398.201 156.402 428.169 174.521 455.932 195.426L311.232 237.49V414.773L195.426 455.932C174.521 428.169 156.402 398.201 141.564 366.592Z" fill="#F2E0E5"/>
<path d="M882.436 657.408L788.992 788.992L657.408 882.436C625.799 867.598 595.831 849.479 568.068 828.574L712.768 786.51V609.227L828.574 568.068C849.479 595.831 867.598 625.799 882.436 657.408Z" fill="#F2E0E5"/>
<path d="M366.592 882.436L235.008 788.992L141.564 657.408C156.402 625.799 174.521 595.831 195.426 568.068L311.232 609.227V786.51L455.932 828.574C428.169 849.479 398.201 867.598 366.592 882.436Z" fill="#F2E0E5"/>
<path d="M882.436 366.592C867.598 398.201 849.479 428.169 828.574 455.932L712.768 414.773V237.49L568.068 195.426C595.831 174.521 625.799 156.402 657.408 141.564L788.992 235.008L882.436 366.592Z" fill="#F2E0E5"/>
<path d="M512 512L311.232 414.773V237.49L512 141.564V512Z" fill="white"/>
<path d="M512 512L712.768 609.227V786.51L512 882.436V512Z" fill="white"/>
<path d="M512 512L311.232 609.227L195.426 568.068L512 512Z" fill="#F2E0E5"/>
<path d="M512 512L712.768 414.773L828.574 455.932L512 512Z" fill="#F2E0E5"/>
</g>
<defs>
<clipPath id="clip0_10_22">
<rect width="1024" height="1024" fill="white"/>
</clipPath>
</defs>
</svg>
