<svg width="16" height="16" viewBox="0 0 16 16" fill="none" xmlns="http://www.w3.org/2000/svg"><path d="M11.4024 6.89365C11.5396 7.06869 11.6794 7.24484 11.8201 7.42062C12.0086 7.41214 12.1953 7.51013 12.2891 7.68973C12.3496 7.80444 12.3605 7.93185 12.3309 8.04764C12.5019 8.25391 12.6714 8.45473 12.8358 8.64472C12.9972 8.66185 13.1489 8.75566 13.2304 8.91217C13.271 8.98903 13.2895 9.07216 13.288 9.15367C13.5234 9.4112 13.7419 9.63298 13.932 9.8068C14.4692 10.2955 14.9776 10.8988 15.2718 11.517C15.5653 12.1336 15.662 12.8043 15.2977 13.3803C15.0314 13.8039 14.5401 14.1348 13.9329 14.1348C13.6302 14.1348 13.3075 14.0533 12.9769 13.869C12.9769 13.869 12.9769 13.869 12.9768 13.869L12.6834 13.706L12.4841 14.0641L12.484 14.0642L12.3093 13.967C12.2533 14.0677 12.1498 14.1236 12.0435 14.1236C11.9946 14.1236 11.9428 14.1124 11.8967 14.0859L11.4024 6.89365ZM11.4024 6.89365C11.4798 6.75133 11.4871 6.5744 11.4073 6.4198L11.4071 6.41937C11.2972 6.2076 11.0574 6.10836 10.8368 6.16386C10.7133 6.00297 10.5941 5.84661 10.4808 5.69695C10.5805 5.54853 10.5975 5.3517 10.5091 5.18269C10.3942 4.96177 10.1378 4.8635 9.90967 4.9359C9.65159 4.58915 9.46321 4.33039 9.38691 4.22559C9.37145 4.20435 9.36059 4.18943 9.35469 4.18139L9.3547 4.18138C9.22654 4.00195 8.99642 3.92791 8.78779 3.9973C7.29519 4.49208 6.13726 4.45665 5.3095 3.95716C4.2793 3.33497 4.04055 2.13792 4.02424 2.05207C3.9914 1.85884 3.85052 1.70222 3.66168 1.64925L3.66168 1.64924L3.65949 1.64865C3.47146 1.59821 3.26726 1.65929 3.14045 1.81344C3.06094 1.90839 1.34572 3.97806 0.709579 5.05908L0.7094 5.05938C0.463385 5.47915 0.385826 5.91174 0.50151 6.33863L0.501534 6.33872C0.598373 6.69541 0.81366 6.96309 0.999873 7.13976C1.18634 7.31667 1.3542 7.41239 1.37623 7.42464L11.4024 6.89365ZM8.99987 5.40346C8.90327 5.27264 8.81928 5.15838 8.75016 5.06393C7.17393 5.52153 5.8306 5.45403 4.78058 4.81533C4.02604 4.35647 3.58867 3.70092 3.3403 3.16638C2.77433 3.87485 1.95084 4.93787 1.57736 5.57243L1.57712 5.57283C1.45639 5.77687 1.43536 5.9354 1.47235 6.07388L1.27913 6.12549L1.47231 6.07373C1.50832 6.20814 1.60046 6.32621 1.69693 6.41653C1.74377 6.46039 1.78819 6.49448 1.82069 6.51738C1.83687 6.52878 1.84974 6.53715 1.85802 6.54235L8.99987 5.40346ZM8.99987 5.40346L8.72027 5.54969L8.71953 5.55007C8.47428 5.67964 8.37946 5.98113 8.50642 6.22811L8.50641 6.22812L8.50736 6.22993C8.59694 6.3999 8.77045 6.50031 8.95281 6.50031C9.03212 6.50031 9.11177 6.48154 9.1859 6.44228C9.1861 6.44218 9.18629 6.44207 9.18649 6.44197L9.60865 6.22059C9.70745 6.35121 9.81101 6.48736 9.9181 6.62758L9.6153 6.78599L9.61458 6.78637C9.36933 6.91593 9.27452 7.21742 9.40147 7.4644L9.40146 7.46441L9.40242 7.46622C9.49279 7.6377 9.66724 7.7352 9.84786 7.7352C9.92719 7.7352 10.0069 7.71642 10.081 7.67715C10.0812 7.67705 10.0814 7.67696 10.0815 7.67686L10.541 7.43603C10.6506 7.57604 10.762 7.71703 10.8743 7.85797L10.497 8.05554C10.4968 8.05561 10.4967 8.05568 10.4966 8.05575C10.2493 8.18434 10.1561 8.48837 10.2825 8.73426L10.2825 8.73427L10.2835 8.73608C10.3739 8.90756 10.5483 9.00506 10.7289 9.00506C10.8082 9.00506 10.8878 8.98631 10.9619 8.9471C10.9621 8.94697 10.9624 8.94684 10.9626 8.94672L11.5198 8.65592C11.6329 8.79239 11.7455 8.92694 11.857 9.05857L11.4364 9.27805L11.4355 9.27853C11.1904 9.40802 11.095 9.71117 11.2227 9.95725L11.2233 9.95838C11.3137 10.1299 11.4881 10.2274 11.6687 10.2274C11.748 10.2274 11.8276 10.2086 11.9017 10.1694C11.902 10.1693 11.9022 10.1691 11.9024 10.169L12.5397 9.83543C12.7927 10.11 13.0321 10.3539 13.2458 10.5486L13.2462 10.5489C14.108 11.3306 14.401 11.9124 14.4853 12.2863C14.5677 12.6514 14.4554 12.8381 14.4475 12.8508C14.3733 12.9688 14.2534 13.0713 14.0975 13.1132C13.945 13.1543 13.7354 13.1435 13.4679 12.995C13.4679 12.995 13.4678 12.995 13.4678 12.995L8.99987 5.40346ZM11.6041 13.5766C11.4707 13.8181 11.5546 14.1243 11.7984 14.2601L1.3764 7.42473L1.46026 7.47143L1.26099 7.82954L1.26069 7.83008C1.1273 8.07158 1.21113 8.37776 1.45498 8.51356C1.53556 8.55954 1.6222 8.57711 1.70008 8.57711C1.87602 8.57711 2.04793 8.48437 2.14057 8.31772C2.14059 8.31768 2.14061 8.31764 2.14063 8.3176L2.33984 7.95959L3.47687 8.59175L3.27766 8.94976L3.27736 8.9503C3.14329 9.19302 3.23043 9.4984 3.4713 9.63357C3.55197 9.6797 3.63875 9.69732 3.71675 9.69732C3.89272 9.69732 4.06467 9.60454 4.1573 9.43782L4.35652 9.07979L5.57184 9.75533L5.37264 10.1133L5.37234 10.1139C5.23827 10.3566 5.32541 10.662 5.56628 10.7971C5.64695 10.8433 5.73373 10.8609 5.81173 10.8609C5.98733 10.8609 6.15892 10.7685 6.2517 10.6038L6.25222 10.6029L6.4515 10.2448L7.66683 10.9203L7.46763 11.2783L7.46733 11.2788C7.33393 11.5203 7.41777 11.8265 7.66162 11.9623C7.74219 12.0083 7.82883 12.0259 7.90672 12.0259C8.08265 12.0259 8.25456 11.9331 8.3472 11.7665C8.34722 11.7664 8.34725 11.7664 8.34727 11.7664L8.54652 11.4083L9.73521 12.0685L9.53604 12.4265L9.53574 12.427C9.40206 12.669 9.48654 12.976 9.73158 13.1114L9.73251 13.1119C9.80838 13.1532 9.8931 13.174 9.97513 13.174C10.1507 13.174 10.3223 13.0817 10.4151 12.917L10.4156 12.9161L10.6149 12.5579L11.8036 13.2181L11.6045 13.5761L11.6041 13.5766Z" fill="white" stroke="white" stroke-width="0.4"></path></svg>