<svg width="10" height="8" viewBox="0 0 10 8" fill="none" xmlns="http://www.w3.org/2000/svg"><path fill-rule="evenodd" clip-rule="evenodd" d="M2.27891 2.99723L9.33333 2.99723C9.70152 2.99723 10 3.29571 10 3.6639C10 4.03209 9.70152 4.33057 9.33333 4.33057L2.27338 4.33057L4.13807 6.19526C4.39842 6.45561 4.39842 6.87772 4.13807 7.13807C3.87772 7.39842 3.45561 7.39842 3.19526 7.13807L0.195262 4.13807C0.0647365 4.00755 -0.000350437 3.83636 1.58049e-06 3.66529L1.89653e-07 3.6639C1.80801e-07 3.46138 0.0903047 3.27995 0.232844 3.15768L3.19526 0.195262C3.45561 -0.0650876 3.87772 -0.0650876 4.13807 0.195262C4.39842 0.455611 4.39842 0.877722 4.13807 1.13807L2.27891 2.99723Z" fill="#27AE5D"></path></svg>