<svg width="16" height="17" viewBox="0 0 16 17" fill="none" xmlns="http://www.w3.org/2000/svg"><path d="M7.18193 6.44252C7.29727 5.88899 7.7879 5.47314 8.37565 5.47314H14.3044C14.9947 5.47314 15.5544 6.03279 15.5544 6.72314V8.66685C15.5544 9.35613 14.9964 9.91533 14.3071 9.91685L11.3837 9.92331C11.5179 10.7874 11.4246 11.6677 11.108 12.5015L11.108 12.5015C10.2931 14.6467 8.17675 15.9722 5.93772 15.9722C5.31628 15.9722 4.68304 15.8704 4.06577 15.6542C1.22194 14.6623 -0.263376 11.6282 0.778557 8.88392L7.18193 6.44252ZM7.18193 6.44252H5.56856V6.10246C5.56856 5.76142 5.263 5.50159 4.92639 5.55639L7.18193 6.44252ZM9.96028 8.85L10.2963 8.84929L13.7021 8.84207C14.1157 8.84119 14.4505 8.50566 14.4505 8.09207V7.30317C14.4505 6.88896 14.1147 6.55317 13.7005 6.55317H8.49481C8.3652 6.55317 8.26013 6.65824 8.26013 6.78786C8.26013 7.19361 7.9312 7.52254 7.52544 7.52254H5.07969C4.74005 7.52254 4.46471 7.24721 4.46471 6.90757C4.46471 6.86938 4.44728 6.83959 4.42462 6.82232C4.40343 6.80616 4.3793 6.80134 4.35232 6.8107C3.17646 7.21861 2.25537 8.09581 1.81368 9.25872C0.99126 11.4252 2.15633 13.8418 4.43808 14.6381C5.54395 15.0239 6.73866 14.9733 7.80468 14.4979C8.87017 14.0214 9.67432 13.1784 10.0743 12.1267L9.96028 8.85ZM9.96028 8.85L10.0576 9.17166M9.96028 8.85L10.0576 9.17166M10.0576 9.17166L10.1688 9.53931C10.1688 9.53937 10.1688 9.53944 10.1688 9.5395M10.0576 9.17166L10.1688 9.5395M10.1688 9.5395C10.4255 10.393 10.3929 11.2871 10.0743 12.1266L10.1688 9.5395ZM4.92636 5.5564C3.00659 5.86885 1.45153 7.11041 0.778576 8.88387L4.92636 5.5564Z" fill="#03122B" stroke="#03122B" stroke-width="0.5"></path><path d="M6.57456 3.7171V1.27287C6.57456 0.968054 6.32745 0.720947 6.02263 0.720947C5.71781 0.720947 5.4707 0.968054 5.4707 1.27288V3.7171C5.4707 4.02192 5.71781 4.26902 6.02263 4.26902C6.32745 4.26902 6.57456 4.02192 6.57456 3.7171Z" fill="#03122B" stroke="#03122B" stroke-width="0.5"></path><path d="M8.43029 2.58789L8.07672 3.50435C7.9673 3.78798 8.11089 4.10022 8.39745 4.20175C8.684 4.30328 9.005 4.15566 9.11443 3.87203L9.468 2.95557C9.57742 2.67193 9.43383 2.3597 9.14728 2.25817C8.86072 2.15663 8.53972 2.30426 8.43029 2.58789Z" fill="#03122B" stroke="#03122B" stroke-width="0.5"></path><path d="M3.94163 3.50544L3.58816 2.58899C3.47877 2.30535 3.15778 2.1577 2.87122 2.2592C2.58466 2.36071 2.44105 2.67293 2.55044 2.95657L2.90391 3.87302C3.0133 4.15666 3.33429 4.30431 3.62085 4.20281C3.90741 4.1013 4.05102 3.78908 3.94163 3.50544Z" fill="#03122B" stroke="#03122B" stroke-width="0.5"></path></svg>