<svg width="11" height="8" viewBox="0 0 11 8" fill="none" xmlns="http://www.w3.org/2000/svg"><path fill-rule="evenodd" clip-rule="evenodd" d="M8.38711 4.33577L1.33268 4.33577C0.964493 4.33577 0.666016 4.0373 0.666016 3.66911C0.666016 3.30092 0.964493 3.00244 1.33268 3.00244L8.39264 3.00244L6.52794 1.13775C6.2676 0.877396 6.26759 0.455286 6.52794 0.194937C6.78829 -0.0654133 7.2104 -0.0654133 7.47075 0.194937L10.4708 3.19494C10.6013 3.32546 10.6664 3.49665 10.666 3.66772L10.666 3.66911C10.666 3.87163 10.5757 4.05306 10.4332 4.17533L7.47075 7.13775C7.2104 7.3981 6.78829 7.3981 6.52795 7.13775C6.2676 6.8774 6.2676 6.45529 6.52794 6.19494L8.38711 4.33577Z" fill="#E80E36"></path></svg>